<svg width="137" height="34" viewBox="0 0 137 34" fill="none" xmlns="http://www.w3.org/2000/svg">
  <path d="M6.84293 15.052C5.4189 15.052 4.19598 14.7525 3.17416 14.1534C2.15506 13.5516 1.37103 12.7132 0.820716 11.6394C0.273119 10.5629 0 9.31792 0 7.90579C0 6.49099 0.273119 5.242 0.820716 4.16151C1.37103 3.07835 2.15506 2.23321 3.17416 1.6261C4.19598 1.01632 5.4189 0.711426 6.84293 0.711426C8.53056 0.711426 9.91518 1.12597 10.9954 1.95239C12.0743 2.77613 12.7483 3.93552 13.0173 5.42922H10.1801C10.0062 4.67769 9.63255 4.08663 9.06049 3.65871C8.49115 3.22812 7.73702 3.01148 6.79945 3.01148C5.49771 3.01148 4.47861 3.44876 3.73942 4.32198C3.00295 5.19253 2.63608 6.38668 2.63608 7.90579C2.63608 9.42223 3.00295 10.6124 3.73942 11.4789C4.47861 12.3454 5.49771 12.7787 6.79945 12.7787C7.73702 12.7787 8.49115 12.5781 9.06049 12.1743C9.63255 11.7718 10.0062 11.2141 10.1801 10.5H13.0173C12.7483 11.9269 12.0743 13.0435 10.9954 13.8485C9.91518 14.6508 8.53056 15.052 6.84293 15.052Z" fill="#143965"/>
  <path d="M20.0789 15.0521C19.0707 15.0521 18.178 14.8409 17.3994 14.421C16.6235 13.9971 16.0134 13.4033 15.5677 12.6398C15.1248 11.8735 14.9046 10.9869 14.9046 9.98132C14.9046 8.96501 15.122 8.06104 15.5569 7.26939C15.9944 6.47774 16.6004 5.86127 17.3722 5.41864C18.144 4.97735 19.0531 4.75537 20.1007 4.75537C21.079 4.75537 21.9432 4.96799 22.6933 5.3919C23.4461 5.81313 24.0331 6.39082 24.4543 7.12497C24.8782 7.85644 25.0902 8.67082 25.0902 9.56945C25.0902 9.71253 25.0861 9.86364 25.0793 10.0241C25.0712 10.1819 25.063 10.345 25.0522 10.5162H17.4646C17.519 11.2838 17.7907 11.8855 18.2799 12.3242C18.7691 12.7601 19.3615 12.9767 20.0572 12.9767C20.5817 12.9767 21.022 12.8617 21.378 12.6291C21.7326 12.3977 21.9976 12.0968 22.1715 11.7251H24.7913C24.6024 12.3456 24.2885 12.9112 23.851 13.4207C23.4162 13.9315 22.8794 14.33 22.2422 14.6189C21.6035 14.9077 20.8834 15.0521 20.0789 15.0521ZM20.1007 6.81472C19.4702 6.81472 18.9117 6.9899 18.4266 7.33892C17.9443 7.68928 17.6358 8.22017 17.5027 8.93292H22.4759C22.4351 8.28837 22.1932 7.77487 21.7476 7.39241C21.3046 7.00729 20.7556 6.81472 20.1007 6.81472Z" fill="#143965"/>
  <path d="M27.2626 14.8168V4.99073H29.5345L29.7356 6.65426C30.0427 6.07389 30.4884 5.61121 31.0727 5.26887C31.6556 4.92654 32.3445 4.75537 33.138 4.75537C34.3732 4.75537 35.3311 5.13916 36.0133 5.9054C36.6981 6.66897 37.0405 7.79091 37.0405 9.2699V14.8168H34.4642V9.51061C34.4642 8.66547 34.2903 8.01824 33.9425 7.56893C33.5946 7.11962 33.0511 6.89496 32.3119 6.89496C31.5863 6.89496 30.9925 7.14636 30.5291 7.64916C30.0685 8.14929 29.8389 8.84733 29.8389 9.74596V14.8168H27.2626Z" fill="#143965"/>
  <path d="M43.9416 14.8166C42.894 14.8166 42.0556 14.5679 41.4251 14.0678C40.7946 13.565 40.4794 12.6717 40.4794 11.3879V7.11412H38.7673V4.99058H40.4794L40.7838 2.35889H43.0557V4.99058H45.7515V7.11412H43.0557V11.4093C43.0557 11.8841 43.1589 12.2104 43.3655 12.3882C43.5747 12.5674 43.9362 12.6557 44.4471 12.6557H45.6918V14.8166H43.9416Z" fill="#143965"/>
  <path d="M47.9662 14.8168V4.99073H50.2599L50.499 6.83612C50.8605 6.20227 51.3537 5.69679 51.9774 5.32236C52.6038 4.94526 53.3389 4.75537 54.1841 4.75537V7.42986H53.4612C52.8959 7.42986 52.3918 7.51544 51.9502 7.68661C51.5072 7.85777 51.1621 8.15598 50.9121 8.57989C50.6648 9.00112 50.5425 9.58817 50.5425 10.3397V14.8168H47.9662Z" fill="#143965"/>
  <path d="M60.7222 15.0521C59.7547 15.0521 58.8851 14.8342 58.1133 14.3996C57.3442 13.965 56.7341 13.3619 56.2816 12.5916C55.8319 11.8187 55.6077 10.9227 55.6077 9.90643C55.6077 8.89013 55.8359 7.99551 56.2925 7.22125C56.7491 6.44832 57.3632 5.84389 58.135 5.40795C58.9068 4.97334 59.7765 4.75537 60.7439 4.75537C61.6965 4.75537 62.5566 4.97334 63.3257 5.40795C64.0975 5.84389 64.7076 6.44832 65.1573 7.22125C65.6098 7.99551 65.8367 8.89013 65.8367 9.90643C65.8367 10.9227 65.6098 11.8187 65.1573 12.5916C64.7076 13.3619 64.0934 13.965 63.3148 14.3996C62.5389 14.8342 61.6747 15.0521 60.7222 15.0521ZM60.7222 12.8537C61.3921 12.8537 61.975 12.6077 62.4723 12.1156C62.9683 11.6208 63.217 10.884 63.217 9.90643C63.217 8.93024 62.9683 8.19342 62.4723 7.69731C61.975 7.20253 61.3989 6.9538 60.7439 6.9538C60.0591 6.9538 59.4721 7.20253 58.9829 7.69731C58.4938 8.19342 58.2492 8.93024 58.2492 9.90643C58.2492 10.884 58.4938 11.6208 58.9829 12.1156C59.4721 12.6077 60.0509 12.8537 60.7222 12.8537Z" fill="#143965"/>
  <path d="M79.3544 15.052C77.9304 15.052 76.7075 14.7525 75.6857 14.1534C74.6666 13.5516 73.8825 12.7132 73.3322 11.6394C72.7846 10.5629 72.5115 9.31792 72.5115 7.90579C72.5115 6.49099 72.7846 5.242 73.3322 4.16151C73.8825 3.07835 74.6666 2.23321 75.6857 1.6261C76.7075 1.01632 77.9304 0.711426 79.3544 0.711426C81.0421 0.711426 82.4267 1.12597 83.5069 1.95239C84.5858 2.77613 85.2598 3.93552 85.5288 5.42922H82.6916C82.5177 4.67769 82.144 4.08663 81.572 3.65871C81.0027 3.22812 80.2485 3.01148 79.3109 3.01148C78.0092 3.01148 76.9901 3.44876 76.2509 4.32198C75.5145 5.19253 75.1476 6.38668 75.1476 7.90579C75.1476 9.42223 75.5145 10.6124 76.2509 11.4789C76.9901 12.3454 78.0092 12.7787 79.3109 12.7787C80.2485 12.7787 81.0027 12.5781 81.572 12.1743C82.144 11.7718 82.5177 11.2141 82.6916 10.5H85.5288C85.2598 11.9269 84.5858 13.0435 83.5069 13.8485C82.4267 14.6508 81.0421 15.052 79.3544 15.052Z" fill="#143965"/>
  <path d="M87.7423 14.8168V0.556396H90.3185V14.8168H87.7423Z" fill="#143965"/>
  <path d="M92.9534 14.8166V4.99059H95.5296V14.8166H92.9534ZM93.573 4.19894V2.41773L98.1222 0V2.05935L93.573 4.19894Z" fill="#143965"/>
  <path d="M98.1645 14.8168V4.99073H100.436L100.637 6.65426C100.945 6.07389 101.39 5.61121 101.975 5.26887C102.557 4.92654 103.246 4.75537 104.04 4.75537C105.275 4.75537 106.233 5.13916 106.915 5.9054C107.6 6.66897 107.942 7.79091 107.942 9.2699V14.8168H105.366V9.51061C105.366 8.66547 105.192 8.01824 104.844 7.56893C104.496 7.11962 103.953 6.89496 103.214 6.89496C102.488 6.89496 101.894 7.14636 101.431 7.64916C100.97 8.14929 100.741 8.84733 100.741 9.74596V14.8168H98.1645Z" fill="#143965"/>
  <path d="M111.784 3.46624C111.316 3.46624 110.93 3.32984 110.626 3.05437C110.324 2.77622 110.175 2.42586 110.175 2.00062C110.175 1.58072 110.324 1.23438 110.626 0.962918C110.93 0.692795 111.316 0.556396 111.784 0.556396C112.254 0.556396 112.64 0.692795 112.941 0.962918C113.241 1.23438 113.392 1.58072 113.392 2.00062C113.392 2.42586 113.241 2.77622 112.941 3.05437C112.64 3.32984 112.254 3.46624 111.784 3.46624ZM110.495 14.8168V4.99069H113.072V14.8168H110.495Z" fill="#143965"/>
  <path d="M120.661 15.0521C119.639 15.0521 118.739 14.8342 117.96 14.3996C117.184 13.965 116.57 13.3592 116.117 12.5809C115.668 11.8 115.443 10.9094 115.443 9.90643C115.443 8.90082 115.668 8.01022 116.117 7.23194C116.57 6.45099 117.184 5.84389 117.96 5.40795C118.739 4.97334 119.639 4.75537 120.661 4.75537C121.933 4.75537 123.005 5.08166 123.879 5.73423C124.751 6.38681 125.308 7.28945 125.548 8.44081H122.83C122.695 7.96342 122.43 7.59033 122.036 7.32288C121.641 7.05275 121.175 6.91636 120.64 6.91636C119.929 6.91636 119.326 7.18113 118.83 7.708C118.332 8.23621 118.085 8.96902 118.085 9.90643C118.085 10.8452 118.332 11.578 118.83 12.1049C119.326 12.6331 119.929 12.8965 120.64 12.8965C121.175 12.8965 121.641 12.7655 122.036 12.5007C122.43 12.2372 122.695 11.8615 122.83 11.372H125.548C125.308 12.482 124.751 13.3726 123.879 14.0465C123.005 14.7178 121.933 15.0521 120.661 15.0521Z" fill="#143965"/>
  <path d="M131.282 15.0521C130.423 15.0521 129.718 14.9184 129.168 14.651C128.616 14.3808 128.207 14.0198 127.939 13.5705C127.67 13.1212 127.537 12.6264 127.537 12.0835C127.537 11.1715 127.899 10.4306 128.624 9.86364C129.349 9.29665 130.436 9.01315 131.885 9.01315H134.424V8.7778C134.424 8.10383 134.228 7.60905 133.837 7.29078C133.448 6.97386 132.967 6.81472 132.391 6.81472C131.865 6.81472 131.407 6.93775 131.016 7.1838C130.627 7.42718 130.387 7.78556 130.293 8.25895H127.782C127.847 7.5462 128.089 6.92572 128.51 6.39751C128.934 5.87063 129.48 5.46545 130.152 5.18329C130.826 4.89846 131.577 4.75537 132.407 4.75537C133.831 4.75537 134.952 5.10573 135.772 5.80377C136.59 6.50315 137 7.49404 137 8.7778V14.8168H134.804L134.56 13.2335C134.266 13.7617 133.853 14.1963 133.32 14.5386C132.79 14.881 132.111 15.0521 131.282 15.0521ZM131.864 13.073C132.603 13.073 133.176 12.8363 133.587 12.3616C133.996 11.8882 134.252 11.2998 134.358 10.5964H132.168C131.483 10.5964 130.991 10.7195 130.695 10.9655C130.402 11.2089 130.255 11.5084 130.255 11.8642C130.255 12.2493 130.402 12.5475 130.695 12.7574C130.991 12.9687 131.381 13.073 131.864 13.073Z" fill="#143965"/>
  <path d="M31.4883 33.8235V25.6129L29.7545 26.014V24.5591L32.3036 23.4465H33.4939V33.8235H31.4883Z" fill="#143965"/>
  <path d="M38.9891 34.0001C38.2961 34.0001 37.6683 33.8784 37.1031 33.6363C36.5405 33.3943 36.0894 33.0212 35.7497 32.5184C35.4086 32.0156 35.2279 31.3831 35.2062 30.6195H37.1085C37.1153 31.1263 37.2824 31.5502 37.6085 31.8926C37.9346 32.2322 38.3939 32.4007 38.9891 32.4007C39.5503 32.4007 39.981 32.2483 40.2827 31.9407C40.5829 31.6345 40.7338 31.2493 40.7338 30.7853C40.7338 30.2437 40.5354 29.8319 40.1413 29.5497C39.7459 29.2689 39.2364 29.1271 38.614 29.1271H37.8314V27.5706H38.6249C39.1385 27.5706 39.5666 27.4529 39.9076 27.2176C40.2473 26.9795 40.4185 26.6265 40.4185 26.1585C40.4185 25.7733 40.2894 25.4658 40.0326 25.2331C39.7785 25.0017 39.4252 24.8854 38.9728 24.8854C38.4795 24.8854 38.095 25.0298 37.8205 25.3187C37.5447 25.6048 37.3925 25.9539 37.3639 26.3671H35.4779C35.5173 25.4083 35.8557 24.6527 36.4943 24.0991C37.1316 23.5468 37.9577 23.27 38.9728 23.27C39.697 23.27 40.3071 23.3971 40.8044 23.6498C41.3004 23.8999 41.6754 24.2328 41.9295 24.6501C42.1863 25.0646 42.3154 25.5219 42.3154 26.0247C42.3154 26.6105 42.1524 27.1026 41.8263 27.5011C41.5001 27.9009 41.0952 28.1697 40.6142 28.3088C41.208 28.4264 41.6904 28.7126 42.06 29.1646C42.4323 29.6139 42.6198 30.1796 42.6198 30.8602C42.6198 31.4352 42.4785 31.9594 42.1958 32.4328C41.9159 32.9075 41.5069 33.2873 40.9675 33.5721C40.4308 33.857 39.7717 34.0001 38.9891 34.0001Z" fill="#143965"/>
  <path d="M51.489 34.0001C50.7851 34.0001 50.1573 33.8316 49.6029 33.4973C49.0513 33.1629 48.6151 32.7043 48.2931 32.1226C47.9737 31.5382 47.8148 30.8749 47.8148 30.1328C47.8148 29.3919 47.9737 28.7313 48.2931 28.1536C48.6151 27.5759 49.0513 27.1213 49.6029 26.7896C50.1573 26.458 50.7851 26.2922 51.489 26.2922C52.0501 26.2922 52.5407 26.3978 52.9619 26.6078C53.3858 26.8151 53.7283 27.1052 53.9892 27.4797V23.1523H55.9187V33.8235H54.2011L53.9892 32.7698C53.7459 33.0988 53.4253 33.3849 53.0271 33.631C52.6317 33.877 52.1194 34.0001 51.489 34.0001ZM51.8966 32.3419C52.5189 32.3419 53.0285 32.1373 53.4239 31.7267C53.8179 31.3175 54.0163 30.7907 54.0163 30.1488C54.0163 29.5069 53.8179 28.9814 53.4239 28.5709C53.0285 28.1617 52.5189 27.9557 51.8966 27.9557C51.2838 27.9557 50.7769 28.159 50.3747 28.5655C49.9725 28.9693 49.7714 29.4909 49.7714 30.1328C49.7714 30.7746 49.9725 31.3042 50.3747 31.7214C50.7769 32.1359 51.2838 32.3419 51.8966 32.3419Z" fill="#143965"/>
  <path d="M61.5048 34.0001C60.7507 34.0001 60.0821 33.8423 59.4992 33.5294C58.919 33.2125 58.4624 32.7672 58.1295 32.1922C57.7993 31.6185 57.6349 30.9565 57.6349 30.2077C57.6349 29.4481 57.798 28.7728 58.1241 28.1804C58.4502 27.5854 58.9013 27.1213 59.4775 26.7897C60.0563 26.4581 60.7384 26.2922 61.5211 26.2922C62.2521 26.2922 62.8989 26.4514 63.4615 26.7683C64.0226 27.0866 64.4615 27.5198 64.7768 28.0681C65.0947 28.6137 65.2551 29.2235 65.2551 29.8974C65.2551 30.0044 65.251 30.1194 65.2442 30.2398C65.2401 30.3575 65.2333 30.4805 65.2225 30.6089H59.5481C59.5875 31.1799 59.79 31.6292 60.1569 31.9568C60.5224 32.2817 60.9667 32.4436 61.4885 32.4436C61.8798 32.4436 62.2073 32.358 62.4723 32.1868C62.7399 32.013 62.9397 31.7883 63.0701 31.5128H65.0268C64.8882 31.9769 64.6545 32.3994 64.3257 32.7805C63.9995 33.159 63.5973 33.4572 63.119 33.6738C62.6435 33.8904 62.1054 34.0001 61.5048 34.0001ZM61.5211 27.8381C61.0455 27.8381 60.627 27.9691 60.2656 28.2286C59.9068 28.4893 59.6758 28.8865 59.5753 29.4214H63.2984C63.2658 28.9373 63.0824 28.5522 62.7494 28.266C62.4193 27.9812 62.0103 27.8381 61.5211 27.8381Z" fill="#143965"/>
  <path d="M70.5059 33.8235V23.4465H72.7996L76.1586 30.0311L79.4686 23.4465H81.7568V33.8235H79.8328V26.6666L76.8923 32.3419H75.3705L72.4354 26.6666V33.8235H70.5059Z" fill="#143965"/>
  <path d="M86.3381 34.0001C85.6968 34.0001 85.1696 33.8998 84.7565 33.7006C84.3434 33.4973 84.0363 33.2285 83.8379 32.8929C83.6382 32.5545 83.539 32.1841 83.539 31.7803C83.539 31.0956 83.808 30.542 84.3488 30.1168C84.8924 29.6928 85.7049 29.4802 86.7892 29.4802H88.6861V29.3037C88.6861 28.8009 88.5407 28.4318 88.2513 28.1965C87.9605 27.9584 87.5991 27.8381 87.1643 27.8381C86.7729 27.8381 86.4319 27.929 86.1425 28.1109C85.8517 28.2928 85.671 28.5629 85.5989 28.9186H83.7184C83.7686 28.3837 83.9521 27.9183 84.2673 27.5225C84.5826 27.1267 84.9902 26.8245 85.4902 26.6132C85.993 26.3992 86.5569 26.2922 87.1806 26.2922C88.2459 26.2922 89.0843 26.5543 89.6971 27.0785C90.3085 27.6027 90.6156 28.3449 90.6156 29.3037V33.8236H88.9742L88.7948 32.6361C88.5734 33.0319 88.2635 33.3582 87.8654 33.615C87.47 33.8717 86.9605 34.0001 86.3381 34.0001ZM86.7729 32.5184C87.3273 32.5184 87.7567 32.3419 88.0611 31.9889C88.3682 31.6332 88.5625 31.1919 88.6427 30.6677H87.0012C86.4903 30.6677 86.1234 30.7586 85.9033 30.9405C85.6818 31.1224 85.5718 31.347 85.5718 31.6145C85.5718 31.9006 85.6818 32.1226 85.9033 32.2831C86.1234 32.4409 86.4142 32.5184 86.7729 32.5184Z" fill="#143965"/>
  <path d="M93.4905 25.3294C93.1386 25.3294 92.8505 25.2264 92.6263 25.0191C92.4007 24.8132 92.2893 24.5511 92.2893 24.2328C92.2893 23.9159 92.4007 23.6578 92.6263 23.4572C92.8505 23.254 93.1386 23.1523 93.4905 23.1523C93.8411 23.1523 94.1291 23.254 94.3547 23.4572C94.583 23.6578 94.6971 23.9159 94.6971 24.2328C94.6971 24.5511 94.583 24.8132 94.3547 25.0191C94.1291 25.2264 93.8411 25.3294 93.4905 25.3294ZM92.5285 33.8235V26.4741H94.458V33.8235H92.5285Z" fill="#143965"/>
  <path d="M100.061 34.0001C99.3355 34.0001 98.6832 33.837 98.1044 33.5133C97.5282 33.1857 97.0717 32.7324 96.7347 32.1547C96.4004 31.577 96.2347 30.9084 96.2347 30.1488C96.2347 29.3866 96.4045 28.7153 96.7456 28.1376C97.0853 27.5599 97.5446 27.1093 98.1207 26.7843C98.6995 26.4567 99.3504 26.2922 100.072 26.2922C100.785 26.2922 101.431 26.4567 102.007 26.7843C102.586 27.1093 103.042 27.5599 103.377 28.1376C103.714 28.7153 103.882 29.3866 103.882 30.1488C103.882 30.9084 103.714 31.577 103.377 32.1547C103.042 32.7324 102.584 33.1857 102.001 33.5133C101.417 33.837 100.77 34.0001 100.061 34.0001ZM100.061 32.358C100.561 32.358 100.996 32.1734 101.366 31.8017C101.738 31.4313 101.925 30.8803 101.925 30.1488C101.925 29.4187 101.738 28.8678 101.366 28.496C100.996 28.1256 100.564 27.9397 100.072 27.9397C99.561 27.9397 99.1221 28.1256 98.7566 28.496C98.3897 28.8678 98.2076 29.4187 98.2076 30.1488C98.2076 30.8803 98.3897 31.4313 98.7566 31.8017C99.1221 32.1734 99.5569 32.358 100.061 32.358Z" fill="#143965"/>
</svg>
