<svg width="24" height="24" viewBox="0 0 24 24" fill="none" xmlns="http://www.w3.org/2000/svg">
  <mask id="mask0_2217_2" style="mask-type:luminance" maskUnits="userSpaceOnUse" x="0" y="3" width="20" height="21">
  <path d="M0 3.23645H19.9859V24.0001H0V3.23645Z" fill="white"/>
  </mask>
  <g mask="url(#mask0_2217_2)">
  <path d="M4.85538 3.42959C5.01235 3.51863 5.04586 3.69055 5.11817 3.84571C5.2037 4.02908 5.3157 4.20805 5.41093 4.38878C5.62698 4.79785 5.84303 5.20691 6.05996 5.61598C6.48854 6.42441 6.91711 7.23196 7.3448 8.0404C7.40917 8.16118 7.47354 8.28548 7.48501 8.42037C7.51587 8.78447 6.92328 9.19266 6.64727 9.36281C5.94533 9.79391 5.26631 10.1148 4.78395 10.8201C4.709 10.9303 4.63933 11.0484 4.61111 11.1789C4.54321 11.5007 4.85802 11.945 4.99559 12.2245C5.17725 12.5965 5.37213 12.9606 5.58113 13.3177C6.00088 14.0344 6.47531 14.7203 7 15.3648C8.37742 17.0539 10.1217 18.4619 12.1429 19.3126C12.2822 19.3717 13.1464 18.4548 13.2734 18.3076C13.5961 17.932 13.8748 17.523 14.2346 17.18C14.724 16.7119 15.1261 16.5206 15.7249 16.9349C16.9197 17.7619 18.1393 18.5527 19.3827 19.3056C21.0926 20.3423 18.6102 22.9713 17.5035 23.4429C15.0661 24.4824 12.1808 23.5822 9.98677 22.3797C5.55379 19.9509 2.12169 15.7712 0.611995 10.9647C0.25397 9.82389 -0.0017616 8.62755 0.116404 7.43738C0.291007 5.68298 1.46208 4.16133 3.15168 3.60415C3.60318 3.45516 4.07848 3.37581 4.55467 3.37317C4.6455 3.37317 4.73898 3.37581 4.82187 3.41284C4.83333 3.41813 4.8448 3.42342 4.85538 3.42959Z" fill="white"/>
  </g>
  <mask id="mask1_2217_2" style="mask-type:luminance" maskUnits="userSpaceOnUse" x="11" y="0" width="13" height="13">
  <path d="M11.821 0H24V12.3839H11.821V0Z" fill="white"/>
  </mask>
  <g mask="url(#mask1_2217_2)">
  <path d="M22.9621 7.10312C22.3783 5.80716 21.5749 4.63197 20.5741 3.61019C19.5741 2.58841 18.4144 1.75882 17.127 1.14346C15.8016 0.510462 14.3836 0.126963 12.9136 0.00353755C12.6032 -0.022029 12.3069 0.0714212 12.0996 0.260967C11.94 0.407314 11.8527 0.596859 11.8527 0.794339C11.8527 1.23691 12.2557 1.61864 12.7716 1.66272C17.9197 2.09383 22.0326 6.29028 22.328 11.4239V11.4248C22.358 11.9379 22.731 12.3487 23.1764 12.361C23.1958 12.361 23.2143 12.361 23.2337 12.3601C23.4118 12.3496 23.582 12.2685 23.7187 12.1283C23.9144 11.9273 24.0159 11.6355 23.9973 11.326C23.9118 9.8599 23.5635 8.43875 22.9621 7.10312Z" fill="white"/>
  </g>
  <path d="M17.8174 6.28326C17.022 5.47042 16.1014 4.80833 15.0794 4.31463C14.0282 3.80682 12.903 3.49385 11.7354 3.38542C11.4462 3.35809 11.1693 3.44272 10.9771 3.61728C10.8324 3.74864 10.7522 3.91967 10.7531 4.09687L10.7504 4.25027V4.25292C10.7513 4.4548 10.8421 4.64876 11.007 4.79687C11.1596 4.9344 11.3607 5.02168 11.5767 5.04284C15.5511 5.41311 18.6376 8.55957 18.8986 12.5242C18.9206 12.7384 18.9982 12.9429 19.1323 13.0981C19.2769 13.2665 19.47 13.3617 19.6728 13.367L19.8298 13.3696C19.8465 13.3696 19.8642 13.3696 19.8809 13.3687C20.0414 13.359 20.1949 13.2859 20.3174 13.1589C20.4982 12.972 20.5908 12.6987 20.5705 12.4104C20.492 11.2458 20.2063 10.1182 19.724 9.05856C19.254 8.02972 18.6129 7.0961 17.8174 6.28326Z" fill="white"/>
  <path d="M16.172 10.9416C15.8545 10.2637 15.4277 9.6483 14.9013 9.1114C14.3757 8.5745 13.7681 8.13282 13.097 7.79957C12.4057 7.45751 11.6667 7.23887 10.8986 7.15071C10.6402 7.12073 10.3854 7.19302 10.217 7.34466C10.0944 7.4531 10.0282 7.59327 10.0282 7.7405L10.0229 8.13634V8.13987C10.0247 8.30914 10.1006 8.47135 10.2381 8.59566C10.3625 8.70939 10.5291 8.78344 10.7055 8.8046C13.0432 9.07261 14.8924 10.961 15.1005 13.2946H15.1014C15.1173 13.4709 15.187 13.6376 15.2981 13.7645C15.4198 13.9047 15.5811 13.9849 15.7513 13.9902L16.1526 13.9955C16.1667 13.9955 16.1808 13.9955 16.1949 13.9946C16.3272 13.9867 16.4533 13.9259 16.5547 13.8183C16.7108 13.6543 16.7901 13.4031 16.7672 13.1456C16.6984 12.3786 16.4983 11.6372 16.172 10.9416Z" fill="white"/>
</svg>