<svg width="24" height="24" viewBox="0 0 24 24" fill="none" xmlns="http://www.w3.org/2000/svg">
  <path d="M16.6004 14C16.4004 13.9 15.1004 13.3 14.9004 13.2C14.7004 13.1 14.5004 13.1 14.3004 13.3C14.1004 13.5 13.7004 14.1 13.5004 14.3C13.4004 14.5 13.2004 14.5 13.0004 14.4C12.3004 14.1 11.6004 13.7 11.0004 13.2C10.5004 12.7 10.0004 12.1 9.6004 11.5C9.5004 11.3 9.6004 11.1 9.7004 11C9.8004 10.9 9.9004 10.7 10.1004 10.6C10.2004 10.5 10.3004 10.3 10.3004 10.2C10.4004 10.1 10.4004 9.89998 10.3004 9.79998C10.2004 9.69998 9.7004 8.49998 9.5004 7.99998C9.4004 7.29998 9.2004 7.29998 9.0004 7.29998C8.9004 7.29998 8.7004 7.29998 8.5004 7.29998C8.3004 7.29998 8.0004 7.49998 7.9004 7.59998C7.3004 8.19998 7.0004 8.89998 7.0004 9.69998C7.1004 10.6 7.4004 11.5 8.0004 12.3C9.1004 13.9 10.5004 15.2 12.2004 16C12.7004 16.2 13.1004 16.4 13.6004 16.5C14.1004 16.7 14.6004 16.7 15.2004 16.6C15.9004 16.5 16.5004 16 16.9004 15.4C17.1004 15 17.1004 14.6 17.0004 14.2C17.0004 14.2 16.8004 14.1 16.6004 14ZM19.1004 4.89998C15.2004 0.999976 8.9004 0.999976 5.0004 4.89998C1.8004 8.09998 1.2004 13 3.4004 16.9L2.0004 22L7.3004 20.6C8.8004 21.4 10.4004 21.8 12.0004 21.8C17.5004 21.8 21.9004 17.4 21.9004 11.9C22.0004 9.29997 20.9004 6.79998 19.1004 4.89998ZM16.4004 18.9C15.1004 19.7 13.6004 20.2 12.0004 20.2C10.5004 20.2 9.1004 19.8 7.8004 19.1L7.5004 18.9L4.4004 19.7L5.2004 16.7L5.0004 16.4C2.6004 12.4 3.8004 7.39998 7.7004 4.89998C11.6004 2.39998 16.6004 3.69998 19.0004 7.49998C21.4004 11.4 20.3004 16.5 16.4004 18.9Z" fill="white"/>
</svg>